<svg width="24" height="24" viewBox="0 0 24 24" fill="none" xmlns="http://www.w3.org/2000/svg">
    <path d="M7.5 18C7.89782 18 8.27936 18.158 8.56066 18.4393C8.84196 18.7206 9 19.1022 9 19.5C9 19.8978 8.84196 20.2794 8.56066 20.5607C8.27936 20.842 7.89782 21 7.5 21C7.10218 21 6.72064 20.842 6.43934 20.5607C6.15804 20.2794 6 19.8978 6 19.5C6 19.1022 6.15804 18.7206 6.43934 18.4393C6.72064 18.158 7.10218 18 7.5 18ZM16.5 18C16.8978 18 17.2794 18.158 17.5607 18.4393C17.842 18.7206 18 19.1022 18 19.5C18 19.8978 17.842 20.2794 17.5607 20.5607C17.2794 20.842 16.8978 21 16.5 21C16.1022 21 15.7206 20.842 15.4393 20.5607C15.158 20.2794 15 19.8978 15 19.5C15 19.1022 15.158 18.7206 15.4393 18.4393C15.7206 18.158 16.1022 18 16.5 18Z" stroke="black" stroke-width="1.5"/>
    <path d="M2.24902 2.29201C2.06125 2.22597 1.85493 2.23723 1.67546 2.32331C1.49599 2.40938 1.35806 2.56323 1.29202 2.75101C1.22598 2.93878 1.23724 3.1451 1.32332 3.32457C1.4094 3.50404 1.56325 3.64197 1.75102 3.70801L2.24902 2.29201ZM20.658 9.88301L21.392 10.034L21.393 10.03L20.658 9.88301ZM5.70802 9.76001V7.03801H4.20802V9.76001H5.70802ZM2.51002 2.38401L2.24902 2.29201L1.75102 3.70801L2.01202 3.79901L2.51002 2.38401ZM10.938 16.25H16.24V14.75H10.938V16.25ZM5.70802 7.03801C5.70802 6.33101 5.70902 5.74101 5.65802 5.26201C5.60302 4.76501 5.48802 4.31201 5.20602 3.90001L3.96702 4.74601C4.05702 4.87801 4.12702 5.06001 4.16602 5.42301C4.20702 5.80301 4.20802 6.29801 4.20802 7.03801H5.70802ZM2.01202 3.79901C2.68002 4.03401 3.11902 4.19001 3.44202 4.35001C3.74502 4.49801 3.87902 4.61801 3.96702 4.74701L5.20602 3.90001C4.92202 3.48401 4.54302 3.21801 4.10202 3.00101C3.68202 2.79501 3.14402 2.60701 2.51002 2.38401L2.01202 3.79901ZM4.20802 9.76001C4.20802 11.213 4.22202 12.26 4.35802 13.06C4.50502 13.914 4.79802 14.526 5.34302 15.102L6.43202 14.07C6.11202 13.732 5.93902 13.402 5.83702 12.807C5.72702 12.157 5.70802 11.249 5.70802 9.76001H4.20802ZM10.938 14.75C9.52102 14.75 8.53802 14.748 7.79702 14.643C7.08202 14.542 6.70502 14.358 6.43202 14.07L5.34302 15.102C5.93702 15.729 6.69002 16.002 7.58602 16.128C8.45602 16.252 9.56702 16.25 10.938 16.25V14.75ZM4.95802 6.87001H17.088V5.37001H4.95902L4.95802 6.87001ZM19.923 9.73101L19.423 12.156L20.893 12.458L21.392 10.034L19.923 9.73101ZM17.09 6.87001C17.946 6.87001 18.7 6.87101 19.295 6.93701C19.589 6.97167 19.813 7.01634 19.967 7.07101C20.128 7.12801 20.154 7.17101 20.141 7.15401L21.33 6.24001C21.095 5.93401 20.765 5.76101 20.464 5.65601C20.1386 5.54887 19.8021 5.47843 19.461 5.44601C18.766 5.36901 17.918 5.37001 17.09 5.37001V6.87001ZM21.393 10.03C21.563 9.18201 21.707 8.47001 21.742 7.90001C21.779 7.31401 21.712 6.73601 21.33 6.24001L20.141 7.15401C20.203 7.23501 20.271 7.38001 20.245 7.80801C20.218 8.25201 20.101 8.84501 19.923 9.73601L21.393 10.03ZM16.24 16.25C17.002 16.25 17.642 16.251 18.158 16.188C18.693 16.123 19.182 15.979 19.608 15.632L18.66 14.469C18.535 14.571 18.358 14.653 17.975 14.699C17.572 14.749 17.04 14.75 16.24 14.75V16.25ZM19.425 12.156C19.263 12.939 19.155 13.459 19.025 13.844C18.902 14.21 18.785 14.367 18.66 14.469L19.608 15.632C20.035 15.284 20.274 14.835 20.446 14.323C20.612 13.831 20.74 13.205 20.894 12.459L19.425 12.156Z" fill="black"/>
    <path d="M16.5 6.5L15 15M9 6.5L10.5 15" stroke="black" stroke-width="1.5" stroke-linecap="round"/>
</svg>