<svg width="195" height="177" viewBox="0 0 195 177" fill="none" xmlns="http://www.w3.org/2000/svg">
    <path d="M83 11C35.7 11 0.700012 36 0.700012 94.3C0.700012 152.6 29.7 176.6 83 176.6C136.3 176.6 165.3 147.8 165.3 94.3C165.3 40.8 130 11 83 11ZM124.7 110.9C124.7 125.9 120 137.5 110.1 144.4C109.4 144.9 108.6 145.4 107.8 145.8C102.2 149.1 95.3 151 86.8 151.4C87 152.7 86.6 154 85.7 154.9C85 155.6 84 156 82.9 156C82.8 156.2 82.7 156.4 82.5 156.5C81.8 157.3 80.7 157.8 79.5 157.8C78.3 157.8 78.2 157.7 77.6 157.4C77.2 157.2 76.8 156.9 76.5 156.6C76.4 156.6 76.2 156.6 76.1 156.7C75.8 156.7 75.4 156.8 75.1 156.8C73.8 156.8 72.6 156.2 71.8 155.1C71 154.1 70.8 152.9 70.7 152.1C70.7 151.6 70.6 150.9 70.7 150.2C70.7 150.2 70.5 150.2 70.4 150.2C70.4 150.4 70.3 150.5 70.2 150.7C70.2 150.7 70.2 150.7 70.2 150.8C69.9 151.3 69.6 151.8 69.2 152.2C68.3 153.1 67.1 153.6 65.9 153.6C64.7 153.6 64.9 153.5 64.4 153.3C64.2 153.2 63.9 153.1 63.7 152.9C63.2 153.3 62.7 153.6 62 153.8C61.5 154 61 154.1 60.5 154.1C59 154.1 57.7 153.4 56.9 152.3C56.7 152 56.6 151.7 56.4 151.4C55.1 151.4 54 150.7 53.3 149.8C52.3 148.6 52.1 146.8 52.7 145.2C52.8 144.9 53 144.6 53.1 144.3C53.1 144.1 53.2 143.9 53.3 143.7C53.4 143.5 53.5 143.3 53.6 143.1C53.6 143.1 53.7 142.9 53.8 142.8C52.4 141.6 51 140.3 49.8 138.9C49 138 48.3 137 47.6 136C43.2 129.4 41.1 120.8 41.1 110.6V76C41.1 50.9 53.9 35.7 82.8 35.7C111.7 35.7 85.6 35.7 86.9 35.8C88.1 35.8 89.3 36 90.4 36.1C95.7 32.1 99.4 31.1 100.3 31C100.4 31.1 100.6 31.3 100.8 31.6C100.9 31.8 101 32 101.2 32.2C101.2 32.2 101.2 32.3 101.3 32.4C101.3 32.5 101.5 32.7 101.5 32.9C101.5 33 101.6 33.1 101.7 33.3C102 33.8 102.3 34.5 102.6 35.2C102.6 35.2 102.6 35.3 102.6 35.4C102.8 35.8 102.9 36.2 103.1 36.6C103.4 37.5 103.8 38.5 104.2 39.6C105.2 40.1 106.2 40.5 107.2 41.1C118.9 47.6 124.3 59.7 124.3 76V110.6L124.7 110.9Z" fill="black"/>
    <path d="M73 56.3C73 56.3 73.1 56.1 73.2 56C73.2 56 73.1 56.2 73 56.3ZM102 33.3C102 33.4 102.1 33.5 102.2 33.7C102.2 33.6 102.1 33.5 102 33.3ZM114.7 100.1C113.3 100.1 112.2 101.2 112.2 102.6C112.2 104 112.2 103.2 112.3 103.4L116.3 104.5C116.8 104 117.2 103.3 117.2 102.6C117.2 101.2 116.1 100.1 114.7 100.1ZM148.4 7.29998C149.3 5.19998 148.7 2.79998 147 1.29998C145.3 -0.200017 142.8 -0.400011 140.8 0.899989L58 53.6L31.8 2.89999C30.7 0.899989 28.5 -0.199992 26.2 0.200008C23.9 0.600008 22.2 2.49998 22 4.79998L13.4 86.3C13.2 88.6 14.5 90.8 16.6 91.7C16.9 91.8 32.4 98.4 50.5 113.1C51.2 113.7 51.9 114.3 52.7 114.9C53.3 111.1 54 107.1 54.8 103.1C54.5 102.9 54.3 102.7 54.1 102.5C53.6 102.1 53.2 101.8 52.7 101.4C52.1 100.9 51.4 100.4 50.8 100C49.5 99.9 48.2 99.7 46.9 99.6C46.9 99.6 46.9 99.5 46.9 99.4C46.9 98.7 46.9 97.9 47.1 97.2C46.4 96.7 45.7 96.2 45 95.7C36 89.5 28.4 85.6 24.2 83.5L30.6 23L51.4 63.3C52.1 64.6 53.3 65.6 54.7 65.9C56.1 66.3 57.6 66.1 58.8 65.3L68.2 59.3L72.9 56.3C72.9 56.3 73 56.1 73.1 56C73.4 55.6 73.7 55.1 73.9 54.7C73.9 54.6 74.1 54.4 74.2 54.3C76.2 51.4 78.1 48.8 80 46.6C80 46.5 80.2 46.4 80.3 46.3C80.3 46.2 80.5 46.1 80.6 46C81 45.5 81.4 45 81.9 44.6C81.9 44.6 82.1 44.4 82.1 44.3C82.3 44.1 82.4 43.9 82.6 43.8C82.8 43.5 83.1 43.3 83.3 43C83.3 43 83.5 42.8 83.5 42.7C83.5 42.7 83.5 42.6 83.6 42.5C83.6 42.5 83.7 42.4 83.8 42.3C83.9 42.2 84 42.1 84.1 41.9C84.7 41.3 85.2 40.8 85.8 40.3C86 40.1 86.2 39.9 86.4 39.7C87.2 39 87.9 38.3 88.6 37.7C89.2 37.2 89.9 36.7 90.5 36.2C95.8 32.2 99.5 31.2 100.4 31.1C100.5 31.2 100.7 31.4 100.9 31.7C101 31.9 101.1 32.1 101.3 32.3C101.3 32.3 101.3 32.4 101.4 32.5C101.4 32.6 101.6 32.8 101.6 33C101.6 33.1 101.7 33.2 101.8 33.4C102.1 33.9 102.4 34.6 102.7 35.3C102.7 35.3 102.7 35.4 102.7 35.5C102.9 35.9 103 36.3 103.2 36.7L105.3 35.4L131.7 18.6L110.7 66.7L108 72.8C108 73 108 73.2 108 73.3C108 74.1 108 74.8 107.9 75.6C107.9 75.9 107.9 76.3 107.9 76.6C107.9 76.8 107.9 77 107.9 77.3C107.9 77.5 107.9 77.7 107.9 77.9C107.9 79.3 107.7 80.7 107.7 82.2C107.5 85 107.4 88 107.2 91.1C106.4 91 105.6 90.9 104.7 90.9C103.1 90.9 101.5 91.1 100 91.6L99.1 93.7C99 94 98.9 94.3 98.8 94.7C100.6 93.8 102.6 93.4 104.8 93.4C111.8 93.4 117.6 98.6 118.7 105.3L121.2 106C120.7 100.2 117.1 95.3 112.2 92.8L111.1 92.5V92.3L148.2 7.29998H148.4ZM52.5 102.4C52.1 104.3 51.7 106.2 51.4 108.1C49.3 106.6 47.9 104.4 47.3 101.9C49 102 50.8 102.2 52.5 102.4ZM66.7 124C66.4 123.4 65.7 123.2 65.1 123.4C65.1 123.4 64.2 123.8 63.2 124.3C63.8 124.9 64.4 125.5 65 126.2C65.4 126 65.7 125.8 66.1 125.5C66.7 125.2 66.9 124.5 66.6 123.9L66.7 124ZM77.1 123.8C74.5 120.9 71.9 118.2 69.3 115.6C69 115.6 68.7 115.6 68.4 115.6C66.1 115.6 63.9 116.9 62.7 118.2C61.4 118.3 60 118.6 58.8 118.9C58.5 118.9 58.2 119.1 57.9 119.2C58.6 119.8 59.3 120.5 59.9 121.1C61.2 120.8 62.4 120.6 63.3 120.5C63.3 120.5 63.5 120.5 63.6 120.5C65.6 120.5 66.9 121.2 67.7 122.6C69.1 124.7 69.4 126.5 68.6 127.7C68.3 128.1 67.9 128.4 67.4 128.7C68 129.3 68.5 129.9 69.1 130.5C69.7 130.1 70.2 129.6 70.6 129.1C70.7 128.9 70.9 128.7 71 128.5C71.5 128.9 72.1 129.3 72.8 129.5C73 129.5 73.3 129.5 73.5 129.5C74.1 129.5 74.9 129.3 75.8 128.7C76.9 127.9 77.9 126.3 77.1 123.8ZM74.3 126.8C73.8 127.2 73.5 127.1 73.3 127.1C72.5 126.9 71.7 125.8 71.3 125.2C71.1 124.1 70.6 122.8 69.7 121.4C68.7 119.9 67.5 119.1 66.2 118.6C66.9 118.3 67.6 118.1 68.4 118C69.6 118 70.6 118.4 71.3 119.4C72.7 121.2 73.9 122.9 74.5 124.3C75.2 125.9 74.7 126.4 74.2 126.8H74.3Z" fill="#F0ABE0"/>
    <path d="M194.8 119C194.8 121.3 193.4 123.4 191.2 124.1L92.6 156.6C92.1 156.8 91.5 156.9 91 156.9C89.2 156.9 87.5 156 86.5 154.4C81.2 145.5 75.2 137.6 69.1 130.7C69.7 130.3 70.2 129.8 70.6 129.3C70.7 129.1 70.9 128.9 71 128.7C71.5 129.1 72.1 129.5 72.8 129.7C73 129.7 73.3 129.7 73.5 129.7C74.1 129.7 74.9 129.5 75.8 128.9C76.9 128.1 77.9 126.5 77.1 124C82.8 130.4 88.3 137.5 93.3 145.6L107.3 141L109.7 140.2L171.6 119.8L121.5 106.2C121 100.4 117.4 95.5 112.5 93L191.1 114.4C193.3 115 194.9 117 194.9 119.3L194.8 119Z" fill="#F0ABE0"/>
    <path d="M121.5 107.5C121.5 107 121.5 106.5 121.5 106C121 100.2 117.4 95.3 112.5 92.8C112.2 92.6 111.8 92.5 111.5 92.3C111 92.1 110.5 91.9 110 91.8C110.2 88.6 110.3 85.5 110.5 82.5C110.8 76.2 111.1 70.8 111.2 66.9C111.2 66.6 111.2 66.3 111.2 66C111.2 58.9 110.2 50.8 108.2 43.2C108 42.6 107.9 42 107.7 41.5C107.1 39.3 106.4 37.4 105.7 35.7C104.6 32.9 103.5 30.9 102.5 29.9C101.9 29.3 101.4 29 100.8 29C98.9 29 93.7 30.9 87.3 36.2C87.3 36.2 87.3 36.2 87.2 36.2C82.4 40.2 75.5 47.4 68.4 59.4C66.9 61.8 65.5 64.5 64 67.3C61.1 73 58.7 79.4 56.7 86C51.2 86.6 46.6 90.5 45.1 95.7C44.8 96.9 44.6 98.1 44.6 99.3C44.6 104 47 108.3 51 110.8C50.9 111.5 50.8 112.3 50.6 113C50.1 116.2 49.7 119.3 49.3 122.1C48.7 127.3 48.2 132.1 47.9 136.3C48.6 137.3 49.3 138.3 50.1 139.2C50.4 134.4 50.9 128.6 51.7 122.3C52 119.9 52.4 117.3 52.8 114.7C53.4 110.9 54.1 106.9 54.9 102.9C57.3 91.2 60.9 78.6 66.1 68.4C68.4 63.8 70.8 59.8 73 56.4C73 56.4 73.1 56.2 73.2 56.1C73.5 55.7 73.8 55.2 74 54.8C74 54.7 74.2 54.5 74.3 54.4C76.3 51.5 78.2 48.9 80.1 46.7C80.1 46.6 80.3 46.5 80.4 46.4C80.4 46.3 80.6 46.2 80.7 46.1C81.1 45.6 81.5 45.1 82 44.7C82 44.7 82.2 44.5 82.2 44.4C82.4 44.2 82.5 44 82.7 43.9C82.9 43.6 83.2 43.4 83.4 43.1C83.4 43.1 83.6 42.9 83.6 42.8C83.6 42.8 83.6 42.7 83.7 42.6C83.7 42.6 83.8 42.5 83.9 42.4C84 42.3 84.1 42.2 84.2 42C84.8 41.4 85.3 40.9 85.9 40.4C86.1 40.2 86.3 40 86.5 39.8C87.3 39.1 88 38.4 88.7 37.8C89.3 37.3 90 36.8 90.6 36.3C95.9 32.3 99.6 31.3 100.5 31.2C100.6 31.3 100.8 31.5 101 31.8C101.1 32 101.2 32.2 101.4 32.4C101.4 32.4 101.4 32.5 101.5 32.6C101.5 32.7 101.7 32.9 101.7 33.1C101.7 33.2 101.8 33.3 101.9 33.5C102.2 34 102.5 34.7 102.8 35.4C102.8 35.4 102.8 35.5 102.8 35.6C103 36 103.1 36.4 103.3 36.8C103.6 37.7 104 38.7 104.4 39.8C104.7 40.6 105 41.6 105.2 42.5C106.5 47 108.6 55.9 108.4 65.8C108.4 67.7 108.3 70.1 108.2 72.8C108.2 73 108.2 73.2 108.2 73.3C108.2 74.1 108.2 74.8 108.1 75.6C108.1 75.9 108.1 76.3 108.1 76.6C108.1 76.8 108.1 77 108.1 77.3C108.1 77.5 108.1 77.7 108.1 77.9C108.1 79.3 107.9 80.7 107.9 82.2C107.7 85 107.6 88 107.4 91.1C106.6 91 105.8 90.9 104.9 90.9C103.3 90.9 101.7 91.1 100.2 91.6C93.4 93.6 88.5 99.9 88.5 107.4C88.5 114.9 95.9 123.9 105 123.9C114.1 123.9 106 123.9 106.6 123.9C106.6 130.3 106.9 135.9 107.3 140.8L109.7 140C109.3 135.2 109.1 129.7 109 123.5C116.2 121.7 121.5 115.2 121.5 107.5ZM47.3 101.9C49 102 50.8 102.2 52.5 102.4C52.1 104.3 51.7 106.2 51.4 108.1C49.3 106.6 47.9 104.4 47.3 101.9ZM53 100.1C52.3 100.1 51.6 99.9 50.9 99.9C49.6 99.8 48.3 99.6 47 99.5C47 99.5 47 99.4 47 99.3C47 98.6 47 97.8 47.2 97.1C47.5 95.5 48.2 93.9 49.2 92.6C49.7 93.3 50.4 93.7 51.3 93.7C52.7 93.7 53.8 92.6 53.8 91.2C53.8 89.8 53.5 89.8 53 89.4C53.9 89 54.8 88.6 55.8 88.4C54.7 92.3 53.8 96.1 52.9 100L53 100.1ZM99.1 94.7C100.9 93.8 102.9 93.4 105.1 93.4C112.1 93.4 117.9 98.6 119 105.3C119.1 106 119.2 106.7 119.2 107.5C119.2 109.1 118.9 110.7 118.4 112.2C114.4 111.3 110.3 110.5 106.1 109.8C101 109 96 108.4 91.1 108C91.1 107.8 91.1 107.7 91.1 107.5C91.1 101.9 94.4 97 99.2 94.8L99.1 94.7ZM105.1 121.5C98.4 121.5 92.7 116.7 91.4 110.4C96.1 110.8 100.9 111.4 105.7 112.1C109.7 112.7 113.6 113.5 117.4 114.4C115 118.6 110.4 121.5 105.2 121.5H105.1Z" fill="black"/>
    <path d="M114.7 105.2C115.3 105.2 115.9 105 116.3 104.6C116.8 104.1 117.2 103.4 117.2 102.7C117.2 101.3 116.1 100.2 114.7 100.2C113.3 100.2 112.2 101.3 112.2 102.7C112.2 104.1 112.2 103.3 112.3 103.5C112.6 104.5 113.6 105.2 114.7 105.2Z" fill="black"/>
    <path d="M76.9 123.3C76.2 121.6 74.8 119.8 73.4 118C72.4 116.6 71 115.8 69.4 115.6C69.1 115.6 68.8 115.6 68.5 115.6C66.2 115.6 64 116.9 62.8 118.2C61.5 118.3 60.1 118.6 58.9 118.9C58.6 118.9 58.3 119.1 58 119.2C54.9 120.4 53.2 123 53.2 126.7C53.2 130.4 53.7 128.7 54.5 129.2C55 129.5 56 130.1 58.9 129.2C59 130.3 60 131.1 61.7 131.5C62.7 131.7 63.6 131.8 64.5 131.8C66.3 131.8 67.9 131.4 69.1 130.6C69.7 130.2 70.2 129.7 70.6 129.2C70.7 129 70.9 128.8 71 128.6C71.5 129 72.1 129.4 72.8 129.6C73 129.6 73.3 129.6 73.5 129.6C74.1 129.6 74.9 129.4 75.8 128.8C76.9 128 77.9 126.4 77.1 123.9C77.1 123.7 77 123.6 76.9 123.4V123.3ZM68.6 127.7C68.3 128.1 67.9 128.4 67.4 128.7C66.1 129.3 64.2 129.5 62.2 129C61.8 128.9 61.5 128.8 61.3 128.7C61.5 128.4 62.1 127.9 62.9 127.4C63.6 127.1 64.3 126.7 65.1 126.3C65.5 126.1 65.8 125.9 66.2 125.6C66.8 125.3 67 124.6 66.7 124C66.4 123.4 65.7 123.2 65.1 123.4C65.1 123.4 64.2 123.8 63.2 124.3C62.8 124.5 62.4 124.7 62 125C61.9 125 61.7 125.2 61.6 125.3C56.7 127.7 55.5 127.1 55.4 127C55.4 127 55.3 127 55.3 126.6C55.3 123.7 56.6 121.9 59.2 121.2C59.4 121.2 59.6 121.2 59.7 121.1C61 120.8 62.2 120.6 63.1 120.5C63.1 120.5 63.3 120.5 63.4 120.5C65.4 120.5 66.7 121.2 67.5 122.6C68.9 124.7 69.2 126.5 68.4 127.7H68.6ZM74.3 126.8C73.8 127.2 73.5 127.1 73.3 127.1C72.5 126.9 71.7 125.8 71.3 125.2C71.1 124.1 70.6 122.8 69.7 121.4C68.7 119.9 67.5 119.1 66.2 118.6C66.9 118.3 67.6 118.1 68.4 118C69.6 118 70.6 118.4 71.3 119.4C72.7 121.2 73.9 122.9 74.5 124.3C75.2 125.9 74.7 126.4 74.2 126.8H74.3Z" fill="black"/>
    <path d="M68.7 147.2C68.6 146.1 67.6 145.1 66.5 144.9C66.3 144.9 66.1 144.9 65.9 144.9C65.2 145 64.7 145.6 64.4 146.3C64.2 145.7 63.9 145.1 63.4 144.8C63.2 144.7 63 144.5 62.8 144.5C62.1 144.2 61.4 144.5 60.8 145C60.8 144.2 60.3 143.5 59.7 143C59.5 142.9 59.3 142.8 59.1 142.7C58.4 142.4 57.5 142.7 56.9 143.3C56.5 143.7 56.1 144.2 55.9 144.7C55.8 144.9 55.7 145.1 55.6 145.2L56.3 144.5C56.3 144.5 56.1 144.7 56.1 144.8C55.7 145.3 55.3 145.8 55.1 146.4C54.8 147.1 54.8 148 55.3 148.6C55.8 149.3 56.8 149.4 57.6 149.2C58.1 149.1 58.5 148.8 58.8 148.5C58.8 148.5 58.8 148.6 58.8 148.7C58.5 149.5 58.5 150.5 59 151.2C59.5 152 60.5 152.1 61.3 151.9C62.1 151.6 62.8 151 63.4 150.3C63.7 149.9 64 149.5 64.3 149C64.3 149.3 64.3 149.6 64.3 149.9C64.4 150.6 64.8 151.3 65.4 151.5C66.1 151.8 67 151.5 67.5 150.9C67.7 150.6 67.9 150.4 68.1 150C68.3 149.6 68.4 149.2 68.5 148.8C68.6 148.3 68.7 147.8 68.6 147.3L68.7 147.2Z" fill="black"/>
    <path d="M84.4 151.6C84.2 151 83.9 150.5 83.6 149.9L84.1 150.5C83.9 149.9 83.6 149.3 83.2 148.8C82.8 148.3 82.1 148 81.5 148.1C81.3 148.1 81.2 148.2 81 148.3C80.4 148.6 80 149.2 79.9 149.8C79.5 149.3 78.9 149 78.3 149.2C78.1 149.2 78 149.3 77.8 149.4C77.4 149.7 77.1 150.1 76.9 150.6C76.8 150 76.4 149.5 75.9 149.4C75.8 149.4 75.6 149.4 75.4 149.4C74.5 149.4 73.6 150.1 73.4 151C73.4 151.4 73.4 151.8 73.4 152.2C73.4 152.8 73.6 153.5 74 154C74.4 154.5 75 154.8 75.7 154.7C76.2 154.5 76.6 154 76.8 153.5C76.8 153.3 76.8 153 76.9 152.8C77 153.2 77.2 153.6 77.5 153.9C77.9 154.5 78.4 155.1 79 155.4C79.6 155.7 80.5 155.6 81 155.1C81.5 154.6 81.6 153.8 81.4 153.1C81.4 153.1 81.4 153 81.4 152.9C81.7 153.2 82 153.4 82.3 153.6C82.9 153.9 83.8 153.8 84.2 153.3C84.6 152.9 84.7 152.2 84.6 151.6H84.4Z" fill="black"/>
</svg>