<svg width="143" height="55" viewBox="0 0 143 55" fill="none" xmlns="http://www.w3.org/2000/svg">
    <path d="M99.0284 39.3034C98.2278 39.3034 97.4272 39.0561 96.8114 38.5L88.9901 32.073C88.0663 31.3314 87.5737 30.0955 87.6968 28.9213L88.9901 18.1067C89.1133 16.9325 89.7907 15.9438 90.8376 15.3876L97.2425 12.0505L97.4888 12.5449L91.084 15.882C90.2218 16.3146 89.606 17.1798 89.4828 18.1685L88.1895 28.9831C88.0663 30.0337 88.4974 31.0225 89.2364 31.6404L97.0577 38.0674C98.0431 38.8708 99.3979 38.9944 100.445 38.3146L110.483 32.5056C111.222 32.073 111.715 31.3932 111.9 30.5899L113.747 22.5562C113.932 21.6292 113.747 20.6404 113.07 19.8989L104.817 10.4438L105.249 10.073L113.501 19.5281C114.24 20.3933 114.548 21.5674 114.301 22.6798L112.454 30.7135C112.208 31.6404 111.653 32.5056 110.791 33L100.753 38.809C100.199 39.1179 99.5827 39.3034 98.9668 39.3034H99.0284Z" fill="white"/>
    <path d="M105.803 35.5955C105.187 33.9888 104.879 31.3315 104.879 27.5H105.433C105.433 31.2697 105.741 33.8652 106.357 35.3483L105.864 35.5337L105.803 35.5955Z" fill="white"/>
    <path d="M92.0693 34.1742H91.5151C91.5151 34.1742 91.5151 31.1461 92.0078 27.3146C92.4389 23.7922 93.3626 18.7865 95.2717 15.0169C97.2425 11.1854 99.1516 9.08429 100.445 8.03373C101.861 6.85957 103.031 6.427 103.463 6.427C103.894 6.427 103.709 6.48879 103.832 6.61239C104.202 6.98317 104.694 8.15735 105.125 9.64049C105.556 11.3708 105.803 13.163 105.803 14.7697C105.803 15.6349 105.741 16.9326 105.618 18.4776C105.618 19.1573 105.556 19.8989 105.495 20.7023H104.941C104.941 19.8989 105.002 19.1573 105.064 18.4776C105.125 16.9944 105.187 15.6967 105.248 14.8315C105.248 12.6068 104.817 10.6293 104.509 9.64049C104.017 7.97195 103.586 7.23036 103.401 7.10676C103.155 7.10676 102.169 7.41577 100.753 8.58992C99.5211 9.64049 97.612 11.6798 95.7028 15.4495C93.8553 19.0955 92.9315 24.0394 92.5004 27.5618C92.0077 31.3315 92.0078 34.2978 92.0078 34.3596L92.0693 34.1742Z" fill="white"/>
    <path d="M104.509 27.7472C102.477 27.7472 100.814 26.0786 100.814 24.0393C100.814 22 102.477 20.3314 104.509 20.3314C106.542 20.3314 108.205 22 108.205 24.0393C108.205 26.0786 106.542 27.7472 104.509 27.7472ZM104.509 20.9494C102.785 20.9494 101.369 22.3707 101.369 24.1011C101.369 25.8314 102.785 27.2528 104.509 27.2528C106.234 27.2528 107.65 25.8314 107.65 24.1011C107.65 22.3707 106.234 20.9494 104.509 20.9494Z" fill="white"/>
    <path d="M107.589 25.7079C106.665 25.4607 105.68 25.2753 104.633 25.1517C103.463 24.9663 102.231 24.8427 101.122 24.7191V24.163C102.354 24.2248 103.524 24.4101 104.756 24.5955C105.741 24.7809 106.788 24.9663 107.712 25.2135L107.589 25.7697V25.7079Z" fill="white"/>
    <path d="M92.6852 24.9663C91.6382 24.4719 91.0224 23.4213 91.0224 22.2472C91.0224 20.5786 92.3773 19.2191 94.0401 19.2191V19.7753C92.6852 19.7753 91.5767 20.8876 91.5767 22.2472C91.5767 23.6067 92.1309 24.0393 92.9315 24.4719L92.6852 24.9663Z" fill="white"/>
    <path d="M93.1163 22.9888C92.5004 22.927 91.8846 22.8652 91.2687 22.8034V22.2472C91.9462 22.2472 92.562 22.3708 93.1779 22.4326V22.9888H93.1163Z" fill="white"/>
    <path d="M106.665 23.545C106.971 23.545 107.219 23.296 107.219 22.9888C107.219 22.6816 106.971 22.4326 106.665 22.4326C106.359 22.4326 106.111 22.6816 106.111 22.9888C106.111 23.296 106.359 23.545 106.665 23.545Z" fill="white"/>
    <path d="M92.5004 21.0113C92.8065 21.0113 93.0547 20.7623 93.0547 20.4551C93.0547 20.148 92.8065 19.8989 92.5004 19.8989C92.1943 19.8989 91.9462 20.148 91.9462 20.4551C91.9462 20.7623 92.1943 21.0113 92.5004 21.0113Z" fill="white"/>
    <path d="M95.4565 29.5393C95.2717 29.5393 95.0254 29.5393 94.8406 29.4775C94.4711 29.4157 94.2248 29.2304 94.2248 28.9832C93.5474 29.1686 93.3626 29.045 93.2394 28.9832C93.0547 28.8596 92.9315 28.6742 92.9315 28.427C92.9315 27.5618 93.3626 26.9438 94.2248 26.6966C95.087 26.4495 96.1339 26.3259 96.6882 27.2528C97.2424 28.1798 97.0577 28.736 96.8729 28.9832C96.6266 29.354 96.1339 29.5393 95.5181 29.5393H95.4565ZM94.7175 28.8596C94.7175 28.8596 94.8406 28.8596 94.9022 28.9214C95.5181 29.0449 96.1339 28.9214 96.3187 28.6124C96.5034 28.3652 96.4418 27.9326 96.1339 27.5C95.826 27.0056 95.2717 26.9438 94.2864 27.191C93.6705 27.3764 93.4242 27.7472 93.4242 28.427C93.4242 29.1068 93.4242 28.4888 93.4242 28.4888C93.4242 28.4888 93.7321 28.6124 94.7791 28.118C94.7791 28.118 94.7791 28.118 94.8406 28.118C95.1486 27.9326 95.5181 27.7472 95.5181 27.7472C95.6412 27.7472 95.826 27.7472 95.8876 27.8708C95.9492 27.9944 95.8876 28.1798 95.7644 28.2416C95.5181 28.427 95.2717 28.5506 95.0254 28.6742C94.8406 28.7978 94.7175 28.9214 94.6559 28.9832L94.7175 28.8596Z" fill="white"/>
    <path d="M97.4888 29.045C97.4888 29.045 97.3656 29.045 97.304 29.045C96.8113 28.9214 96.5034 28.3652 96.5034 28.3034C96.4418 28.1798 96.5034 27.9944 96.6266 27.9326C96.7498 27.8708 96.9345 27.9326 96.9961 28.0562C97.0577 28.1798 97.2424 28.4888 97.4272 28.4888C97.4272 28.4888 97.5504 28.4888 97.612 28.427C97.7351 28.3652 97.8583 28.2416 97.6735 27.8708C97.5504 27.5618 97.2424 27.191 96.9345 26.8203C96.7498 26.5731 96.565 26.5113 96.2571 26.5113C95.826 26.5113 95.4565 26.8203 95.3333 26.9439C95.2717 27.0675 95.087 27.1292 94.9638 27.0056C94.8406 26.9439 94.7791 26.7585 94.9022 26.6349C95.1486 26.3259 95.7028 25.9551 96.2571 25.9551C96.6882 25.9551 97.0577 26.1405 97.3656 26.4495C97.6735 26.882 97.9815 27.3146 98.1662 27.6854C98.4126 28.3034 98.1662 28.6742 97.9199 28.8596C97.7351 28.9832 97.5504 29.045 97.4272 29.045H97.4888Z" fill="white"/>
    <path d="M106.542 8.21909C106.419 8.21909 106.357 8.21912 106.295 8.09553C104.941 5.80901 102.662 4.82022 102.662 4.82022C102.539 4.82022 102.477 4.63482 102.477 4.51123L102.908 0.247206C102.908 0.123611 103.031 0.0617977 103.155 0C103.278 0 103.401 7.54183e-06 103.463 0.123603L104.817 2.7809L109.128 0.0618204C109.252 2.26301e-05 109.375 0.0618204 109.436 0.0618204C109.498 0.0618204 109.559 0.247214 109.498 0.370809L107.589 4.82022L111.715 5.93261C111.838 5.93261 111.9 6.05618 111.9 6.17978C111.9 6.30337 111.838 6.42698 111.715 6.42698L106.603 8.09553C106.603 8.09553 106.603 8.09553 106.542 8.09553V8.21909ZM103.093 4.38766C103.647 4.63485 105.433 5.62359 106.665 7.60112L110.73 6.2416L107.158 5.25281C107.096 5.25281 107.034 5.191 106.973 5.12921C106.973 5.06741 106.973 5.00563 106.973 4.88204L108.697 0.988787L104.879 3.39888C104.817 3.39888 104.756 3.39888 104.633 3.39888C104.571 3.39888 104.509 3.33707 104.448 3.27527L103.339 1.17417L103.031 4.32584L103.093 4.38766Z" fill="#F0ABE0"/>
    <path d="M0 11.5562H12.9944C20.5693 11.5562 24.2644 14.3371 24.2644 21.7528C24.2644 29.1685 20.8157 32.382 13.9182 32.382H10.1615V37.9438H0V11.6179V11.5562ZM12.6865 25.3989C14.1645 25.3989 14.6572 24.5955 14.6572 23.3595V21.5674C14.6572 20.2078 14.1645 19.6516 12.6865 19.6516H10.2231V25.3989H12.6865Z" fill="white"/>
    <path d="M36.2119 11.5562V37.882H26.2352V11.5562H36.2119Z" fill="white"/>
    <path d="M62.2623 23.9775V37.882H55.5495L54.0715 35.2865H53.8867C52.9014 37.3877 51.2386 38.2528 48.5905 38.2528C41.9393 38.2528 38.429 33.8652 38.429 25.2135C38.429 16.5618 42.9246 11.1854 54.1331 11.1854C65.3415 11.1854 60.4147 11.4326 61.8312 11.6798V20.0843L61.708 20.2079C60.1684 20.0843 58.0745 19.9607 55.8575 19.9607C53.6404 19.9607 51.3618 20.2079 50.2532 20.7641C49.0831 21.3821 48.652 22.8034 48.652 24.5337V25.7079C48.652 27.5 49.0215 28.9214 49.8837 29.4158C50.4996 29.7865 51.4849 29.9719 52.7782 29.9719C54.0715 29.9719 53.4557 29.9719 53.8252 29.9101V24.0393H62.2007L62.2623 23.9775Z" fill="white"/>
    <path d="M85.295 30.5281V37.882H64.7872V11.5562H85.2334V18.9101H74.9487V21.7528H83.9401V27.5H74.9487V30.5281H85.295Z" fill="white"/>
    <path d="M116.087 11.5562H126.68L130.56 17.4887C130.929 18.1685 132.654 21.4438 134.009 24.1011H134.317C133.762 21.0112 133.023 16.7472 133.023 16.191V11.5562H143V37.882H132.777L128.712 31.5168C128.343 30.8989 127.05 28.5506 125.756 26.3876H125.51C125.756 27.9944 126.187 31.3315 126.187 32.1966V37.8202H116.211V11.4944L116.087 11.5562Z" fill="white"/>
    <path d="M66.5732 50.9832V54.8764H64.7872V45.4214H68.975C71.0689 45.4214 72.239 46.5338 72.239 48.0169C72.239 49.5 71.5 49.9944 70.6994 50.2416C71.3152 50.427 71.9927 50.9214 71.9927 52.5899V53.0225C71.9927 53.6405 71.9927 54.4438 72.1158 54.8764H70.3299C70.1451 54.4438 70.1451 53.7641 70.1451 52.7753V52.5899C70.1451 51.4776 69.8372 50.9214 68.1744 50.9214H66.5732V50.9832ZM66.5732 49.5618H68.4823C69.7756 49.5618 70.2683 49.0675 70.2683 48.2023C70.2683 47.3371 69.714 46.9045 68.5439 46.9045H66.5732V49.5618Z" fill="white"/>
    <path d="M91.6382 50.118C91.6382 52.7135 90.037 55 86.8346 55C83.6322 55 82.1542 52.8371 82.1542 50.118C82.1542 47.3989 83.8785 45.236 86.9578 45.236C90.037 45.236 91.5766 47.2135 91.5766 50.0562L91.6382 50.118ZM84.1249 50.118C84.1249 52.0337 85.0487 53.5787 86.9578 53.5787C88.8669 53.5787 89.7291 51.9719 89.7291 50.1798C89.7291 48.3876 88.8669 46.7809 86.8962 46.7809C84.9255 46.7809 84.1249 48.2641 84.1249 50.118Z" fill="white"/>
    <path d="M104.017 54.8764V51.4776C104.017 51.354 104.017 51.2922 103.955 51.1686L100.506 45.3596H102.6C103.401 46.8428 104.571 48.8821 105.002 49.8708C105.433 48.9439 106.665 46.781 107.466 45.3596H109.436L105.926 51.1068C105.926 51.1686 105.864 51.2304 105.864 51.4158V54.8147H104.017V54.8764Z" fill="white"/>
    <path d="M119.536 52.4663L118.674 54.8764H116.826L120.214 45.4214H122.554L126.126 54.8764H124.155L123.231 52.4663H119.536ZM122.862 50.9832C122.061 48.8203 121.63 47.5225 121.384 46.7192C121.137 47.5843 120.645 49.1293 119.967 50.9832H122.862Z" fill="white"/>
    <path d="M136.041 45.4214H137.888V53.3933H142.877L142.63 54.8764H135.979V45.4214H136.041Z" fill="white"/>
</svg>
