<svg width="233" height="90" viewBox="0 0 233 90" fill="none" xmlns="http://www.w3.org/2000/svg">
    <path d="M161 63.9C159.7 63.9 158.4 63.5 157.4 62.6L144.7 52.2C143.2 51 142.4 49 142.6 47.1L144.7 29.6C144.9 27.7 146 26.1 147.7 25.2L158.1 19.8L158.5 20.6L148.1 26C146.7 26.7 145.7 28.1 145.5 29.7L143.4 47.2C143.2 48.9 143.9 50.5 145.1 51.5L157.8 61.9C159.4 63.2 161.6 63.4 163.3 62.3L179.6 52.9C180.8 52.2 181.6 51.1 181.9 49.8L184.9 36.8C185.2 35.3 184.9 33.7 183.8 32.5L170.4 17.2L171.1 16.6L184.5 31.9C185.7 33.3 186.2 35.2 185.8 37L182.8 50C182.4 51.5 181.5 52.9 180.1 53.7L163.8 63.1C162.9 63.6 161.9 63.9 160.9 63.9H161Z" fill="black"/>
    <path d="M172 57.9C171 55.3 170.5 51 170.5 44.8H171.4C171.4 50.9 171.9 55.1 172.9 57.5L172.1 57.8L172 57.9Z" fill="black"/>
    <path d="M149.8 55.6H148.9C148.9 55.6 148.9 50.7 149.7 44.5C150.4 38.8 151.9 30.7 155 24.6C158.2 18.4 161.3 15 163.4 13.3C165.7 11.4 167.6 10.7 168.3 10.7C169 10.7 168.7 10.8 168.9 11C169.5 11.6 170.3 13.5 171 15.9C171.7 18.7 172.1 21.6 172.1 24.2C172.1 25.6 172 27.7 171.8 30.2C171.8 31.3 171.7 32.5 171.6 33.8H170.7C170.7 32.5 170.8 31.3 170.9 30.2C171 27.8 171.1 25.7 171.2 24.3C171.2 20.7 170.5 17.5 170 15.9C169.2 13.2 168.5 12 168.2 11.8C167.8 11.8 166.2 12.3 163.9 14.2C161.9 15.9 158.8 19.2 155.7 25.3C152.7 31.2 151.2 39.2 150.5 44.9C149.7 51 149.7 55.8 149.7 55.9L149.8 55.6Z" fill="black"/>
    <path d="M169.9 45.2C166.6 45.2 163.9 42.5 163.9 39.2C163.9 35.9 166.6 33.2 169.9 33.2C173.2 33.2 175.9 35.9 175.9 39.2C175.9 42.5 173.2 45.2 169.9 45.2ZM169.9 34.2C167.1 34.2 164.8 36.5 164.8 39.3C164.8 42.1 167.1 44.4 169.9 44.4C172.7 44.4 175 42.1 175 39.3C175 36.5 172.7 34.2 169.9 34.2Z" fill="black"/>
    <path d="M174.9 41.9C173.4 41.5 171.8 41.2 170.1 41C168.2 40.7 166.2 40.5 164.4 40.3V39.4C166.4 39.5 168.3 39.8 170.3 40.1C171.9 40.4 173.6 40.7 175.1 41.1L174.9 42V41.9Z" fill="black"/>
    <path d="M150.7 40.7C149 39.9 148 38.2 148 36.3C148 33.6 150.2 31.4 152.9 31.4V32.3C150.7 32.3 148.9 34.1 148.9 36.3C148.9 38.5 149.8 39.2 151.1 39.9L150.7 40.7Z" fill="black"/>
    <path d="M151.4 37.5C150.4 37.4 149.4 37.3 148.4 37.2V36.3C149.5 36.3 150.5 36.5 151.5 36.6V37.5H151.4Z" fill="black"/>
    <path d="M173.4 38.4C173.897 38.4 174.3 37.9971 174.3 37.5C174.3 37.0029 173.897 36.6 173.4 36.6C172.903 36.6 172.5 37.0029 172.5 37.5C172.5 37.9971 172.903 38.4 173.4 38.4Z" fill="black"/>
    <path d="M150.4 34.3C150.897 34.3 151.3 33.8971 151.3 33.4C151.3 32.903 150.897 32.5 150.4 32.5C149.903 32.5 149.5 32.903 149.5 33.4C149.5 33.8971 149.903 34.3 150.4 34.3Z" fill="black"/>
    <path d="M155.2 48.1C154.9 48.1 154.5 48.1 154.2 48C153.6 47.9 153.2 47.6 153.2 47.2C152.1 47.5 151.8 47.3 151.6 47.2C151.3 47 151.1 46.7 151.1 46.3C151.1 44.9 151.8 43.9 153.2 43.5C154.6 43.1 156.3 42.9001 157.2 44.4001C158.1 45.9001 157.8 46.8 157.5 47.2C157.1 47.8 156.3 48.1 155.3 48.1H155.2ZM154 47C154 47 154.2 47 154.3 47.1C155.3 47.3 156.3 47.1 156.6 46.6C156.9 46.2 156.8 45.5 156.3 44.8C155.8 44 154.9 43.9 153.3 44.3C152.3 44.6 151.9 45.2 151.9 46.3C151.9 47.4 151.9 46.4001 151.9 46.4001C151.9 46.4001 152.4 46.6 154.1 45.8C154.1 45.8 154.1 45.8 154.2 45.8C154.7 45.5 155.3 45.2 155.3 45.2C155.5 45.2 155.8 45.2001 155.9 45.4001C156 45.6001 155.9 45.9 155.7 46C155.3 46.3 154.9 46.5 154.5 46.7C154.2 46.9 154 47.1 153.9 47.2L154 47Z" fill="black"/>
    <path d="M158.5 47.3C158.5 47.3 158.3 47.3 158.2 47.3C157.4 47.1 156.9 46.2 156.9 46.1C156.8 45.9 156.9 45.6 157.1 45.5C157.3 45.4 157.6 45.5 157.7 45.7C157.8 45.9 158.1 46.4 158.4 46.4C158.4 46.4 158.6 46.4 158.7 46.3C158.9 46.2 159.1 46 158.8 45.4C158.6 44.9 158.1 44.3 157.6 43.7C157.3 43.3 157 43.2 156.5 43.2C155.8 43.2 155.2 43.7 155 43.9C154.9 44.1 154.6 44.2 154.4 44C154.2 43.9 154.1 43.6 154.3 43.4C154.7 42.9 155.6 42.3 156.5 42.3C157.2 42.3 157.8 42.6 158.3 43.1C158.8 43.8 159.3 44.5 159.6 45.1C160 46.1 159.6 46.7 159.2 47C158.9 47.2 158.6 47.3 158.4 47.3H158.5Z" fill="black"/>
    <path d="M173.2 13.6C173 13.6 172.9 13.6 172.8 13.4C170.6 9.70002 166.9 8.09998 166.9 8.09998C166.7 8.09998 166.6 7.79998 166.6 7.59998L167.3 0.700012C167.3 0.500012 167.5 0.399988 167.7 0.299988C167.9 0.299988 168.1 0.3 168.2 0.5L170.4 4.79999L177.4 0.400024C177.6 0.300024 177.8 0.400024 177.9 0.400024C178 0.400024 178.1 0.700024 178 0.900024L174.9 8.09998L181.6 9.90002C181.8 9.90002 181.9 10.1 181.9 10.3C181.9 10.5 181.8 10.7 181.6 10.7L173.3 13.4C173.3 13.4 173.3 13.4 173.2 13.4V13.6ZM167.6 7.40002C168.5 7.80002 171.4 9.39998 173.4 12.6L180 10.4L174.2 8.79999C174.1 8.79999 174 8.69998 173.9 8.59998C173.9 8.49998 173.9 8.40001 173.9 8.20001L176.7 1.90002L170.5 5.79999C170.4 5.79999 170.3 5.79999 170.1 5.79999C170 5.79999 169.9 5.69998 169.8 5.59998L168 2.20001L167.5 7.29999L167.6 7.40002Z" fill="#F0ABE0"/>
    <path d="M0.199951 19H21.2999C33.5999 19 39.5999 23.5 39.5999 35.5C39.5999 47.5 33.9999 52.7 22.7999 52.7H16.7V61.7H0.199951V19.1V19ZM20.7999 41.4C23.1999 41.4 23.9999 40.1 23.9999 38.1V35.2C23.9999 33 23.1999 32.1 20.7999 32.1H16.7999V41.4H20.7999Z" fill="black"/>
    <path d="M58.9999 19V61.6H42.7999V19H58.9999Z" fill="black"/>
    <path d="M101.4 39.1V61.6H90.4999L88.0999 57.4H87.7999C86.1999 60.8 83.5 62.2 79.2 62.2C68.4 62.2 62.7 55.1 62.7 41.1C62.7 27.1 70 18.4 88.2 18.4C106.4 18.4 98.4 18.8 100.7 19.2V32.8L100.5 33C97.9999 32.8 94.5999 32.6 90.9999 32.6C87.3999 32.6 83.6999 33 81.8999 33.9C79.9999 34.9 79.2999 37.2 79.2999 40V41.9C79.2999 44.8 79.8999 47.1 81.2999 47.9C82.2999 48.5 83.8999 48.8 85.9999 48.8C88.0999 48.8 87.1 48.8 87.7 48.7V39.2H101.3L101.4 39.1Z" fill="black"/>
    <path d="M138.7 49.7V61.6H105.4V19H138.6V30.9H121.9V35.5H136.5V44.8H121.9V49.7H138.7Z" fill="black"/>
    <path d="M188.7 19H205.9L212.2 28.6C212.8 29.7 215.6 35 217.8 39.3H218.3C217.4 34.3 216.2 27.4 216.2 26.5V19H232.4V61.6H215.8L209.2 51.3C208.6 50.3 206.5 46.5 204.4 43H204C204.4 45.6 205.1 51 205.1 52.4V61.5H188.9V18.9L188.7 19Z" fill="black"/>
    <path d="M108.3 82.8V89.1H105.4V73.8H112.2C115.6 73.8 117.5 75.6 117.5 78C117.5 80.4 116.3 81.2 115 81.6C116 81.9 117.1 82.7 117.1 85.4V86.1C117.1 87.1 117.1 88.4 117.3 89.1H114.4C114.1 88.4 114.1 87.3 114.1 85.7V85.4C114.1 83.6 113.6 82.7 110.9 82.7H108.3V82.8ZM108.3 80.5H111.4C113.5 80.5 114.3 79.7 114.3 78.3C114.3 76.9 113.4 76.2 111.5 76.2H108.3V80.5Z" fill="black"/>
    <path d="M149.1 81.4C149.1 85.6 146.5 89.3 141.3 89.3C136.1 89.3 133.7 85.8 133.7 81.4C133.7 77 136.5 73.5 141.5 73.5C146.5 73.5 149 76.7 149 81.3L149.1 81.4ZM136.9 81.4C136.9 84.5 138.4 87 141.5 87C144.6 87 146 84.4 146 81.5C146 78.6 144.6 76 141.4 76C138.2 76 136.9 78.4 136.9 81.4Z" fill="black"/>
    <path d="M169.1 89.1V83.6C169.1 83.4 169.1 83.3 169 83.1L163.4 73.7H166.8C168.1 76.1 170 79.4 170.7 81C171.4 79.5 173.4 76 174.7 73.7H177.9L172.2 83C172.2 83.1 172.1 83.2 172.1 83.5V89H169.1V89.1Z" fill="black"/>
    <path d="M194.3 85.2L192.9 89.1H189.9L195.4 73.8H199.2L205 89.1H201.8L200.3 85.2H194.3ZM199.7 82.8C198.4 79.3 197.7 77.2 197.3 75.9C196.9 77.3 196.1 79.8 195 82.8H199.7Z" fill="black"/>
    <path d="M221.1 73.8H224.1V86.7H232.2L231.8 89.1H221V73.8H221.1Z" fill="black"/>
</svg>
